PathFileType	4	(X/Y/Z)	C:/Users/beibeiliu/ov580/test_trc\sequence.25_training_dense_right.trc
DataRate	CameraRate	NumFrames	NumMarkers	Units	OrigDataRate	OrigDataStartFrame	OrigNumFrames
120	120	23	19	mm	120	226	300
Frame#	Time	ThumbCMC			ThumbMCP			ThumbIP			ThumbTip			IndexMCP			IndexPIP			IndexTip			MiddleMCP			MiddlePIP			MiddleTip			RingMCP			RingPIP			RingTip			PinkyMCP			PinkyPIP			PinkyTip			BackHand1			BackHand2			BackHand3	
		X0	Y0	Z0	X1	Y1	Z1	X2	Y2	Z2	X3	Y3	Z3	X4	Y4	Z4	X5	Y5	Z5	X6	Y6	Z6	X7	Y7	Z7	X8	Y8	Z8	X9	Y9	Z9	X10	Y10	Z10	X11	Y11	Z11	X12	Y12	Z12	X13	Y13	Z13	X14	Y14	Z14	X15	Y15	Z15	X16	Y16	Z16	X17	Y17	Z17	X18	Y18	Z18	
225	1.875	180.441	14.2403	31.0051	179.632	19.3181	0.231861	188.644	31.801	-19.9948	200.868	38.5376	-38.0711	200.817	71.5078	5.59633	200.709	88.3174	-11.3934	210.521	100.658	-24.9822	217.059	73.9368	-0.773336	218.245	88.9466	-19.5629	224.29	101.528	-36.583	233.33	53.9426	-11.677	222.205	39.4906	-29.3116	216.409	13.6297	-19.4346	241.63	41.515	-6.5124	235.49	23.7006	-21.7291	218.873	8.90534	-3.2498	227.792	38.1702	36.5685	228.754	18.0273	56.1342	202.169	32.4806	51.3536	
226	1.88333	181.914	7.73295	32.3007	178.124	18.2543	-3.3341	184.443	27.0213	-21.1441	196.895	38.1908	-40.9338	189.705	67.7471	5.47024	196.415	84.4124	-11.5282	201.02	98.3391	-24.6891	212.402	74.7663	-2.6072	209.359	89.4338	-20.8161	215.83	102.273	-39.5777	226.26	55.9314	-12.5199	221.95	40.5741	-30.267	213.884	16.314	-20.4344	240.675	43.6805	-2.66008	231.51	30.0222	-21.5124	219.008	11.3907	-8.99912	227.841	41.4482	37.9288	222.578	18.409	57.2501	198.193	31.1336	47.8123	
227	1.89167	181.407	5.98404	31.5668	175.562	12.7483	-3.39567	184.86	26.6128	-21.6836	193.959	34.3738	-36.9756	188.348	69.0716	2.12543	188.927	85.2471	-14.9068	192.037	98.5708	-27.6941	205.791	74.4842	-2.82518	202.221	87.8965	-20.791	206.542	101.95	-38.7094	221.519	56.7255	-12.7056	216.8	39.9107	-31.4828	214.583	12.4962	-18.5672	236.55	46.6175	-5.43634	228.612	29.6094	-22.0471	220.575	11.6967	-7.27562	222.839	41.403	37.4967	221.013	19.6775	57.942	198.508	29.2195	49.6	
228	1.9	175.342	6.3794	27.4158	172.894	9.96398	-3.05305	182.505	25.5479	-21.6066	191.794	35.1499	-40.0374	183.067	64.7561	2.37235	182.413	79.2227	-12.109	181.316	98.9801	-28.2043	201.035	70.0203	-2.38513	197.319	83.2018	-20.8856	195.411	100.915	-36.6948	216.178	54.9996	-9.15552	216.633	35.4311	-31.5375	211.339	10.7149	-17.3668	237.005	46.3239	-4.36585	228.848	32.7569	-22.3907	214.22	12.8711	-7.96726	218.124	40.3406	39.7611	217.787	21.1433	57.2486	190.423	31.1214	47.1513	
229	1.90833	175.114	2.55132	28.4097	173.276	7.10896	-2.1095	178.303	22.1058	-23.2164	186.525	30.6884	-39.8781	177.487	64.2338	1.24645	177.306	76.9485	-13.577	178.971	97.5436	-28.1967	191.705	65.7756	-6.18956	192.57	79.0708	-24.1348	189.74	95.6035	-32.005	211.756	54.5953	-14.6012	212.218	32.2405	-31.0812	211.281	10.7343	-18.7233	232.084	46.4939	-9.22514	220.747	28.7825	-20.6345	212.801	11.821	-4.05531	216.827	43.6092	35.9301	215.908	19.9749	58.0917	188.257	29.0657	47.9473	
230	1.91667	177.275	5.48451	27.2182	173.92	9.8144	-4.62407	178.113	20.3825	-23.9915	187.692	33.9268	-41.2683	172.959	63.3235	0.203633	175.169	74.7013	-14.6713	172.202	92.7693	-28.1469	193.571	60.9051	-11.9638	189.012	64.6138	-23.304	187.094	75.3389	-23.9945	208.832	52.0986	-13.1428	210.746	28.3359	-29.8816	206.619	9.16116	-10.2869	227.423	45.4784	-10.2858	221.261	25.1483	-20.8461	212.737	12.5685	-5.63375	215.993	41.1412	37.6508	217.792	21.1888	57.3393	186.865	26.6262	46.1257	
231	1.925	172.072	2.37425	25.1125	169.44	8.53183	-7.94496	172.17	18.3039	-27.6707	185.697	32.5355	-42.9708	168.935	63.5345	0.635729	169.074	82.0498	-18.0397	172.686	96.683	-32.9673	195.312	59.4884	-15.6726	193.317	39.5784	-24.7079	189.176	54.0076	-1.66749	207.786	50.4088	-16.0263	207.988	29.3813	-30.1809	207.968	11.0258	-9.44384	228.951	45.6098	-10.344	220.874	22.6179	-21.3241	209.321	11.1774	-3.69667	211.717	41.7418	34.8269	214.189	24.7219	53.6644	187.736	29.9209	43.3101	
232	1.93333	174.03	2.10286	27.2115	170.86	7.03668	-5.38969	172.849	21.2866	-28.4812	184.446	31.3976	-46.4076	171.134	65.9228	-0.92899	171.293	81.1751	-18.0926	172.185	95.2203	-33.468	194.377	55.8934	-20.8776	194.21	33.6911	-31.5053	188.438	40.3765	1.39861	211.365	49.0906	-19.2942	205.443	23.2387	-27.5772	202.763	12.1294	-3.57086	224.498	44.7609	-12.0764	217.08	22.3536	-22.0632	209.535	12.7662	-4.5839	212.625	43.6611	31.8223	215.483	20.8764	54.9958	182.837	27.0013	44.1088	
233	1.94167	172.226	2.66642	26.2559	167.16	7.1921	-7.20292	171.77	21.4908	-29.3461	181.329	28.8111	-47.4501	169.343	62.3334	-0.64297	169.742	82.1654	-19.5903	171.194	92.5163	-34.7803	188.611	56.7116	-19.0649	190.824	33.4819	-33.6268	184.685	33.1264	-1.25589	208.465	48.3729	-18.4907	208.075	24.4861	-28.9037	204.117	11.8949	-1.72468	224.896	43.7063	-9.93159	217.541	20.7537	-21.9139	211.434	10.4113	-2.89316	211.748	40.8339	34.6342	211.109	24.6248	52.3559	186.153	28.7016	43.2333	
234	1.95	171.652	1.95571	25.0969	168.519	9.29822	-8.32621	171.894	20.5751	-31.0276	184.774	30.8394	-45.3967	171.288	66.0996	-3.73734	171.027	80.7933	-20.9379	167.521	93.3652	-40.6735	190.544	56.6813	-18.6564	190.073	34.8666	-34.6992	184.276	39.1706	-2.96044	206.05	48.8863	-19.1655	206.203	24.718	-30.8132	199.795	13.4922	-1.16629	225.223	43.535	-13.4492	215.094	25.0248	-24.1199	207.516	12.6244	-4.40562	209.258	43.2569	32.2412	210.21	24.4657	51.1087	184.878	29.6086	40.632	
235	1.95833	169.415	6.15238	20.8176	166.887	7.13235	-10.1443	170.671	19.8837	-34.2615	183.421	28.5546	-51.0055	166.226	64.0328	-6.69134	165.882	80.9118	-25.6726	171.612	89.8757	-42.4104	187.609	57.1806	-22.4444	188.837	34.4987	-29.9511	183.799	49.277	-7.50953	206.201	48.9058	-19.4078	206.34	25.5736	-32.8476	201.349	13.0299	-7.26282	219.414	44.7923	-13.642	216.416	20.416	-24.6155	209.563	12.0139	-5.40796	204.548	42.8971	30.4966	208.387	25.7519	48.9729	181.94	32.3669	38.9968	
236	1.96667	167.477	6.79193	20.1392	165.721	5.8928	-10.7734	172.221	20.3441	-33.7855	187.455	30.8343	-50.1024	167.343	64.1664	-9.38109	163.524	78.0954	-29.9436	164.425	89.4899	-51.1022	186.243	59.2775	-24.2672	185.478	42.4934	-31.1012	182.533	69.3637	-22.0512	204.99	48.978	-25.63	204.805	25.665	-35.6863	199.065	12.5961	-11.9465	216.724	44.1959	-20.2839	211.523	23.061	-26.3647	204.26	13.452	-2.4982	208.49	45.332	25.6107	207.922	25.0374	47.9843	181.318	34.0997	35.374	
237	1.975	165.658	7.68428	21.468	162.836	6.96238	-12.3323	171.446	19.3012	-32.8208	185.671	28.1413	-48.6157	166.115	61.6999	-12.4735	166.524	71.0729	-31.834	166.033	86.8733	-53.7015	182.505	61.5269	-26.6094	180.773	65.5465	-39.8976	178.64	83.0051	-46.8482	202.586	47.6203	-27.9788	200.477	24.9582	-36.6121	200.173	7.92446	-14.4987	217.801	42.5642	-19.673	213.04	18.4047	-26.4188	203.431	13.44	-3.81096	203.276	47.549	26.0459	205.281	29.5732	47.6992	180.157	35.0794	38.7359	
238	1.98333	166.636	7.22406	24.3455	164.532	7.49357	-10.466	169.498	15.2739	-35.2275	183.765	22.8845	-51.0034	165.341	60.7615	-17.6681	159.282	67.5771	-36.6461	160.675	78.8288	-57.1358	180.074	64.7941	-25.2775	178.905	72.4847	-48.1805	175.526	83.4105	-61.7936	200.26	47.1593	-29.1263	200.825	22.7132	-39.4832	198.294	6.40651	-12.3952	218.618	39.8877	-23.0061	209.479	19.396	-28.3973	199.776	10.7732	-4.5456	202.668	47.9964	24.5739	208.9	31.0075	45.6275	178.369	38.5274	35.2837	
239	1.99167	163.294	10.296	19.8608	163.666	6.705	-9.6042	170.261	12.3076	-34.118	187.622	22.9653	-52.2292	159.049	58.2144	-20.8018	159.113	64.7887	-41.3044	157.895	74.2281	-62.9197	178.592	64.1308	-28.1308	177.83	70.6674	-49.2657	170.826	78.8618	-72.8759	200.523	44.6058	-34.5486	199.253	18.2395	-40.1505	197.451	4.89972	-14.144	217.789	39.1733	-22.9866	208.178	17.6329	-28.6266	202.154	9.83203	-1.80003	200.536	49.2228	16.862	203.425	35.8967	41.5738	178.744	38.7405	33.728	
240	2	165.951	13.0979	21.5673	160.172	5.80221	-13.1892	169.632	11.4486	-33.2883	184.864	16.895	-52.1509	161.653	58.8488	-27.1995	160.163	64.5157	-49.3548	156.866	68.4178	-67.1713	178.216	63.5095	-33.6333	174.094	66.871	-53.6961	168.882	73.35	-81.1934	198.345	43.2424	-34.6223	196.328	16.6514	-40.7418	193.647	4.69827	-19.1629	216.308	36.0231	-28.9558	207.014	14.7111	-28.7208	200.732	11.5848	-4.26277	203.217	50.5702	17.5336	206.522	39.36	43.8976	177.239	44.0176	30.2255	
241	2.00833	163.002	15.6882	21.4455	159.431	6.10204	-13.0368	169.04	11.8752	-34.1206	187.232	18.1108	-50.1576	159.085	55.7305	-28.6541	157.889	59.923	-48.8569	154.353	63.942	-70.6503	175.355	60.6101	-35.6164	170.833	63.16	-57.8069	173.632	67.196	-81.7747	196.851	42.0967	-36.5544	196.515	14.1746	-40.9692	197.067	3.7458	-17.5267	213.979	36.3184	-27.2218	207.04	12.6891	-26.8845	200.63	12.1817	0.827605	199.699	53.6783	15.742	201.512	41.7603	40.3676	175.269	46.6734	26.8632	
242	2.01667	160.915	17.0182	20.7071	159.844	6.63991	-9.25977	166.535	6.63925	-34.3213	182.909	11.441	-47.6047	154.245	53.424	-27.9544	154.86	56.7248	-51.4524	155.61	60.6636	-73.5097	174.938	57.6793	-37.5123	168.23	58.3855	-63.0042	171.39	61.3435	-84.1009	196.439	40.3427	-35.4655	194.273	12.4997	-40.8852	196.086	2.97943	-12.2316	213.323	35.7628	-26.9041	206.425	9.1165	-24.1557	197.056	11.2859	1.7638	195.787	53.2913	10.446	201.081	45.4275	39.6273	173.309	45.5208	28.9536	
243	2.025	158.683	14.9461	24.8861	157.017	3.2998	-7.89025	166.194	6.14913	-32.4237	181.224	8.05802	-50.5625	154.195	53.8893	-34.6753	151.504	54.3892	-53.7383	151.225	57.3953	-75.1701	173.224	55.8642	-37.4792	169.619	56.7488	-61.4306	167.74	57.5548	-87.0286	192.621	37.4528	-37.606	191.935	11.9893	-40.2672	191.862	1.97952	-15.3024	207.846	33.8349	-26.9199	202.521	9.55464	-24.1079	196.599	11.2586	-2.57338	197.395	55.9662	8.22393	198.355	47.227	36.5983	169.593	47.7716	26.3276	
244	2.03333	158.232	15.7599	25.3361	157.635	4.42212	-7.87702	166.197	4.53007	-33.9468	181.25	5.5259	-50.2322	154.841	51.4112	-34.5549	151.65	52.7056	-56.816	150.14	53.9068	-80.2868	168.787	54.1545	-38.9734	168.786	53.233	-64.261	165.493	52.5879	-90.5813	193.693	36.3563	-39.4234	195.284	9.78199	-40.8559	190.719	1.86779	-10.4619	209.408	31.7304	-28.3016	201.494	8.05939	-23.6413	195.414	12.1262	3.21325	192.871	56.2043	10.448	197.28	48.306	36.1543	167.426	49.4692	21.5218	
245	2.04167	156.593	17.1324	25.0692	155.859	3.62071	-7.7642	163.764	2.00436	-28.8049	180.879	2.8873	-46.7457	153.42	48.6208	-33.753	148.493	47.8422	-55.1949	150.928	49.0442	-81.9052	170.958	52.8386	-43.3352	167.694	49.6173	-64.5385	164.591	49.1428	-88.0894	194.963	33.4574	-39.3304	190.92	5.3117	-38.3281	191.383	-0.554527	-13.3607	209.077	24.9854	-29.8008	200.702	5.818	-21.8864	192.197	10.461	1.99694	193.366	54.6444	4.83632	195.631	49.1991	36.1223	167.271	48.0387	23.0639	
246	2.05	152.937	17.591	22.4714	153.709	1.94136	-8.42755	163.889	-0.125562	-28.7799	181.286	1.02522	-47.1186	153.348	46.0306	-36.131	148.907	45.7074	-60.5774	149.016	45.8073	-79.7786	170.531	49.344	-46.2511	169.008	46.4204	-68.1611	163.288	42.8046	-93.1972	188.676	29.742	-39.245	191.436	0.818	-37.7498	190.192	-2.74337	-10.7524	206.509	23.7948	-27.9243	200.359	2.79083	-23.1706	190.575	8.33475	5.33121	195.909	54.2872	4.75497	196.326	49.5567	34.2449	165.875	48.3986	22.0748	
247	2.05833	151.018	16.5625	22.2489	151.914	-0.378339	-8.46263	162.39	-3.94797	-30.3283	178.229	-5.3693	-48.7748	150.329	43.2122	-37.4865	149.66	41.2619	-62.1464	147.139	40.8565	-84.7614	168.435	44.8259	-45.4962	166.57	41.3918	-69.274	163.818	38.2935	-92.246	191.921	23.9572	-42.2089	192.533	-1.60614	-36.36	188.057	-4.46479	-8.51431	208.304	18.8041	-29.4145	198.134	-0.824087	-20.2475	193.273	4.90873	4.62791	195.055	50.2283	6.97018	191.739	47.951	32.3222	164.834	49.5633	18.3263	
